<?xml version="1.0" standalone="no"?><!DOCTYPE svg PUBLIC "-//W3C//DTD SVG 1.1//EN" "http://www.w3.org/Graphics/SVG/1.1/DTD/svg11.dtd"><svg t="1571386863660" class="icon" viewBox="0 0 1024 1024" version="1.1" xmlns="http://www.w3.org/2000/svg" p-id="1266" width="21" height="21" xmlns:xlink="http://www.w3.org/1999/xlink"><defs><style type="text/css"></style></defs><path d="M510.777 513.223m-418.146 0a418.146 418.146 0 1 0 836.292 0 418.146 418.146 0 1 0-836.292 0Z" fill="#FFD7D7" p-id="1267"></path><path d="M122.424 232.399l97.053 295 598.756-41.646-135.145-277.065c-3.225-6.611-9.994-10.648-17.419-10.389l-532.335 18.594c-7.807 0.273-13.337 8.131-10.91 15.506z" fill="#8AAAF9" p-id="1268"></path><path d="M219.475 532.398a4.998 4.998 0 0 1-4.747-3.438l-97.053-294.999c-1.646-5.005-0.832-10.398 2.236-14.797 3.092-4.434 7.92-7.083 13.248-7.27L665.494 193.3c9.5-0.334 17.99 4.796 22.088 13.193l135.146 277.065a5.001 5.001 0 0 1-4.147 7.18l-598.756 41.646a3.764 3.764 0 0 1-0.35 0.014z m446.867-329.111c-0.166 0-0.332 0.003-0.499 0.009L133.508 221.89c-2.153 0.075-4.12 1.167-5.395 2.995-1.251 1.795-1.594 3.964-0.94 5.952l95.837 291.304 587.478-40.861-131.894-270.4c-2.284-4.684-6.979-7.593-12.252-7.593z" fill="#280D0D" p-id="1269"></path><path d="M219.477 828.588V527.399l598.756-41.646-9.735 271.701z" fill="#7A9AF4" p-id="1270"></path><path d="M219.477 833.588a5 5 0 0 1-4.999-5v-301.19a5 5 0 0 1 4.653-4.988l598.757-41.646c1.41-0.095 2.804 0.408 3.822 1.394s1.572 2.357 1.521 3.773l-9.735 271.701a5.001 5.001 0 0 1-4.397 4.785l-589.021 71.134a4.884 4.884 0 0 1-0.601 0.037z m5-301.526v290.886l579.177-69.945 9.384-261.877-588.561 40.936z" fill="#280D0D" p-id="1271"></path><path d="M116.558 229.765L106.509 365.48c-0.023 0.314 0.014 0.63 0.109 0.93l56.489 177.842c0.083 0.26 0.121 0.532 0.115 0.804l-4.942 215.655c-0.014 0.619 0.205 1.22 0.613 1.686l56.771 64.674c1.503 1.712 4.325 0.649 4.325-1.629v-294.24c0-0.261-0.041-0.52-0.122-0.767L121.368 229.18c-0.841-2.572-4.61-2.113-4.81 0.585z" fill="#3A4ABA" p-id="1272"></path><path d="M217.499 832.916a7.448 7.448 0 0 1-5.592-2.546l-56.771-64.675a7.45 7.45 0 0 1-1.854-5.099l4.933-215.233-56.361-177.439c-0.29-0.913-0.4-1.86-0.33-2.815l10.049-135.712c0.292-3.944 3.502-6.919 7.468-6.919 3.278 0 6.058 2.021 7.08 5.149l98.499 301.254c0.246 0.751 0.37 1.532 0.37 2.321v294.24c0 2.106-0.842 4.047-2.37 5.465a7.507 7.507 0 0 1-5.121 2.009z m-54.198-73.077l51.688 58.885V531.605l-94.391-288.689-9.066 122.447 56.34 177.375a7.47 7.47 0 0 1 0.349 2.436l-4.92 214.665z" fill="#280D0D" p-id="1273"></path><path d="M199.469 248.184l443.778-15.501c5.962-0.208 11.429 2.936 14.181 8.156l99.93 185.697c5.517 10.462-2.12 23.48-14.069 23.981l-472.732 31.741c-6.951 0.292-13.136-3.964-15.303-10.527l-70.976-201.937c-3.391-10.274 4.311-21.23 15.191-21.61z" fill="#FFF6EE" p-id="1274"></path><path d="M269.886 487.271c-8.833 0-16.622-5.615-19.38-13.974l-70.945-201.846c-2.137-6.471-1.098-13.354 2.818-18.974 3.949-5.668 10.114-9.055 16.916-9.292l443.777-15.501c0.245-0.009 0.489-0.013 0.731-0.013 7.608 0 14.524 4.151 18.048 10.834l99.91 185.659c3.387 6.424 3.201 14.058-0.479 20.457-3.729 6.488-10.35 10.554-17.718 10.887l-472.673 31.736c-0.042 0.003-0.084 0.006-0.126 0.007-0.293 0.015-0.587 0.02-0.879 0.02z m373.917-249.598c-0.127 0-0.255 0.002-0.382 0.007l-443.778 15.501c-3.625 0.127-6.927 1.954-9.06 5.015-2.099 3.013-2.667 6.669-1.557 10.031l70.945 201.846c1.477 4.472 5.627 7.353 10.319 7.192l472.663-31.736c0.042-0.003 0.083-0.006 0.125-0.007 3.948-0.166 7.513-2.365 9.535-5.883 1.96-3.409 2.08-7.436 0.321-10.771l-99.91-185.659c-1.807-3.43-5.334-5.536-9.221-5.536z" fill="#280D0D" p-id="1275"></path><path d="M163.232 544.645l-56.758 143.46 51.784 73.568z" fill="#3A4ABA" p-id="1276"></path><path d="M158.258 766.673a5 5 0 0 1-4.089-2.122l-51.784-73.568a5.002 5.002 0 0 1-0.561-4.718l56.757-143.46a4.999 4.999 0 0 1 9.648 1.954l-4.974 217.028a5.002 5.002 0 0 1-4.997 4.886z m-46.141-79.239l41.49 58.945 3.985-173.889-45.475 114.944z" fill="#280D0D" p-id="1277"></path><path d="M561.688 367.877l25.089 70.155c0.775 2.166 2.871 3.531 5.186 3.376l137.487-9.231c3.937-0.264 6.377-4.582 4.53-8.014L698.8 358.79c-0.923-1.716-2.732-2.746-4.701-2.677l-127.397 4.45c-3.675 0.127-6.244 3.874-5.014 7.314zM557.255 344.842l122.716-4.286c4.013-0.14 6.583-4.525 4.701-8.023l-41.831-77.734c-0.923-1.716-2.732-2.746-4.701-2.677l-108.857 3.802c-3.676 0.128-6.245 3.876-5.015 7.315l27.973 78.218c0.752 2.108 2.761 3.463 5.014 3.385z" fill="#FFD96E" p-id="1278"></path><path d="M538.466 361.548l-137.215 4.793c-3.676 0.128-6.245 3.876-5.015 7.315l26.951 75.359c0.775 2.166 2.871 3.531 5.186 3.376l135.671-9.109c3.603-0.242 6.051-3.934 4.845-7.306l-25.407-71.043a5.103 5.103 0 0 0-5.016-3.385z" fill="#FF8888" p-id="1279"></path><path d="M335.592 262.689l-124.159 4.337c-3.664 0.128-6.232 3.853-5.025 7.288l64.976 184.866c0.767 2.181 2.87 3.559 5.195 3.403l123.872-8.317c3.603-0.242 6.051-3.934 4.845-7.306l-64.689-180.885c-0.753-2.109-2.762-3.465-5.015-3.386z" fill="#45F2FF" p-id="1280"></path><path d="M391.802 350.621l137.215-4.793c3.676-0.128 6.245-3.876 5.015-7.315l-27.973-78.218c-0.754-2.108-2.763-3.463-5.015-3.385l-137.215 4.793c-3.676 0.128-6.245 3.876-5.015 7.315l27.973 78.218c0.754 2.108 2.763 3.463 5.015 3.385z" fill="#FFD96E" p-id="1281"></path><path d="M267.959 572.517v71.031l513.648-43.32v-66.517zM272.817 687.831a5 5 0 0 1-0.462-9.978l505.946-47.544c2.756-0.248 5.188 1.762 5.446 4.511a5.001 5.001 0 0 1-4.511 5.446L273.291 687.81a5.402 5.402 0 0 1-0.474 0.021zM272.817 729.971a5 5 0 0 1-0.481-9.977l502.378-49.217c2.732-0.256 5.194 1.74 5.464 4.489a5.001 5.001 0 0 1-4.489 5.464L273.31 729.947c-0.165 0.016-0.33 0.024-0.493 0.024z" fill="#455BC4" p-id="1282"></path><path d="M288.911 358.866c-20.327 0-39.784-13.355-47.317-32.478-4.5-11.423-4.248-22.684 0.709-31.709 4.645-8.455 13.074-14.247 23.734-16.308a41.005 41.005 0 0 1 7.756-0.732c19.946 0 39.964 14.065 47.599 33.444 4.441 11.271 4.261 22.259-0.506 30.938-4.545 8.275-13 13.983-23.808 16.073a43.142 43.142 0 0 1-8.167 0.772z m-15.117-71.352c-2.002 0-3.981 0.186-5.882 0.554-7.727 1.493-13.748 5.53-16.954 11.366-3.519 6.406-3.582 14.693-0.177 23.336 5.986 15.194 22.022 26.223 38.131 26.223a33.17 33.17 0 0 0 6.293-0.593c7.988-1.544 13.876-5.393 17.027-11.131 3.377-6.147 3.368-13.951-0.026-22.565-6.207-15.756-22.362-27.19-38.412-27.19z" fill="#26E5F9" p-id="1283"></path><path d="M266.171 323.36a4.938 4.938 0 0 1-0.674-9.827l28.669-3.987a4.936 4.936 0 1 1 1.36 9.779l-28.669 3.987c-0.23 0.033-0.459 0.048-0.686 0.048z" fill="#26E5F9" p-id="1284"></path><path d="M288.785 342.796a4.937 4.937 0 0 1-4.5-6.963l8.869-19.722a1.72 1.72 0 0 0-0.565-0.624l-23.578-15.645a4.937 4.937 0 0 1 5.459-8.229l23.577 15.645c4.354 2.888 6.212 8.235 4.321 12.438l-9.077 20.186a4.94 4.94 0 0 1-4.506 2.914z" fill="#26E5F9" p-id="1285"></path><path d="M118.072 222.546a17.455 17.455 0 0 1 4.391-6.293c-0.085 0.024-0.17 0.044-0.251 0.093-2.275 1.364-4.547 3.785-6.797 7.059a7.485 7.485 0 0 1 2.657-0.859zM220.078 833.551a4.998 4.998 0 0 1-3.151-0.666 7.452 7.452 0 0 1-5.02-2.515l-56.771-64.675a7.02 7.02 0 0 1-0.343-0.43 5.029 5.029 0 0 1-0.624-0.714l-51.784-73.568a5.002 5.002 0 0 1-0.561-4.718l56.103-141.808-56.073-176.533c-0.29-0.913-0.4-1.86-0.33-2.815l10.01-135.189c-20.346 38.479-37.948 139.174-37.948 148.758 0 11.235 58.736 152.342 59.059 162.033 0.322 9.691-62.363 134.318-59.059 142.401S191.69 852.949 205.67 859.084c13.981 6.136 558.976-79.755 558.976-79.755s28.826-8.143 39.736-16.342l-584.304 70.564z" fill="#280D0D" p-id="1286"></path><path d="M185.877 791.998c8.211 0.202 16.414 0.139 24.621-0.187 1.928-0.077 1.935-3.077 0-3-8.207 0.326-16.41 0.389-24.621 0.187-1.936-0.047-1.931 2.953 0 3z m-7.491-11.169c7.126-0.15 14.2-0.727 21.261-1.689 1.91-0.26 1.093-3.151-0.798-2.893a179.42 179.42 0 0 1-20.464 1.581c-1.931 0.042-1.935 3.042 0.001 3.001z m27.284-2.157h2.675c0.818 0 1.5-0.682 1.5-1.5s-0.682-1.5-1.5-1.5h-2.675c-0.818 0-1.5 0.682-1.5 1.5s0.683 1.5 1.5 1.5z m-36.379-11.235h31.564c1.935 0 1.935-3 0-3h-31.564c-1.935 0-1.935 3 0 3z m-11.768-12.893c6.966 0.245 13.919 0.154 20.876-0.273 1.922-0.118 1.933-3.119 0-3-6.957 0.427-13.91 0.518-20.876 0.273-1.935-0.068-1.929 2.932 0 3z m30.494 0.543c7.497 0.182 14.988 0.13 22.482-0.156 1.928-0.074 1.935-3.074 0-3-7.494 0.286-14.985 0.338-22.482 0.156-1.936-0.047-1.931 2.953 0 3z m-43.875-16.608l44.943-3.152c1.919-0.135 1.932-3.135 0-3l-44.943 3.152c-1.919 0.134-1.932 3.135 0 3z m54.574-4.211h8.025c1.935 0 1.935-3 0-3h-8.025c-1.935 0-1.935 3 0 3z m-27.82 10.164h8.025c1.935 0 1.935-3 0-3h-8.025c-1.935 0-1.935 3 0 3z m-42.266-29.273a316.844 316.844 0 0 0 41.636-3.136c1.909-0.27 1.094-3.16-0.798-2.893a310.891 310.891 0 0 1-40.838 3.029c-1.934 0.017-1.936 3.017 0 3z m9.632 8.944h10.7c1.935 0 1.935-3 0-3h-10.7c-1.935 0-1.935 3 0 3z m33.171-1.089c2.658 0.217 5.287 0.016 7.892-0.548 1.891-0.409 1.089-3.301-0.798-2.893-2.35 0.508-4.7 0.636-7.094 0.44-1.93-0.157-1.914 2.844 0 3.001zM120.61 700.67c16.231 0.12 32.456 0.497 48.675 1.128 1.935 0.075 1.928-2.925 0-3a1542.985 1542.985 0 0 0-48.675-1.128c-1.935-0.014-1.934 2.986 0 3z m58.311-0.107h8.025c1.935 0 1.935-3 0-3h-8.025c-1.935 0-1.935 3 0 3z m-67.411-9.11l24.092-2.509c1.904-0.198 1.924-3.2 0-3l-24.092 2.509c-1.904 0.198-1.923 3.2 0 3z m31.566-3.195h5.35c1.935 0 1.935-3 0-3h-5.35c-1.934 0-1.934 3 0 3z m-32.097-10.225l51.335 1.219c1.936 0.046 1.931-2.954 0-3l-51.335-1.219c-1.936-0.046-1.931 2.954 0 3z m60.465 1.019l11.579 0.648c1.934 0.108 1.923-2.892 0-3l-11.579-0.648c-1.934-0.109-1.924 2.892 0 3z m-48.162-15.938h16.585c1.935 0 1.935-3 0-3h-16.585c-1.935 0-1.935 3 0 3z m6.956-17.685a673.01 673.01 0 0 0 40.658-0.51c1.927-0.083 1.935-3.083 0-3-13.547 0.58-27.101 0.748-40.658 0.51-1.936-0.034-1.932 2.966 0 3z m10.163 10.195h7.49c1.935 0 1.935-3 0-3h-7.49c-1.934 0-1.934 3 0 3z m-5.349-25.68h7.49c1.935 0 1.935-3 0-3h-7.49c-1.935 0-1.935 3 0 3z m14.979-1.605h4.815c1.935 0 1.935-3 0-3h-4.815c-1.934 0-1.934 3 0 3z m18.725-49.219h26.75c1.935 0 1.935-3 0-3h-26.75c-1.935 0-1.935 3 0 3z m-1.07-8.56h11.77c1.935 0 1.935-3 0-3h-11.77c-1.935 0-1.935 3 0 3z m3.593-9.788l7.482-1.12c1.908-0.286 1.094-3.176-0.798-2.893l-7.482 1.12c-1.907 0.286-1.094 3.177 0.798 2.893z m14.974 10.715l5.307-1.252c1.883-0.444 1.084-3.337-0.798-2.893l-5.307 1.252c-1.882 0.444-1.083 3.337 0.798 2.893z m-18.244-19.378c4.773-1.662 9.618-2.272 14.655-1.852 1.929 0.161 1.913-2.841 0-3a37.146 37.146 0 0 0-15.452 1.96c-1.816 0.631-1.035 3.53 0.797 2.892z m-7.81-15.828c6.962 0.417 13.839 0.01 20.712-1.16 1.904-0.324 1.094-3.215-0.798-2.893-6.612 1.126-13.223 1.454-19.914 1.053-1.933-0.116-1.922 2.885 0 3z m25.677 6.46a19.078 19.078 0 0 0 7.873-1.166c1.796-0.669 1.019-3.57-0.798-2.893a16.914 16.914 0 0 1-7.075 1.058c-1.933-0.117-1.922 2.884 0 3.001z m-24.253-21.395l11.054-0.427c1.928-0.074 1.935-3.075 0-3l-11.054 0.427c-1.928 0.074-1.935 3.074 0 3z m1.409 8.01l8.232-0.753c1.91-0.175 1.927-3.176 0-3l-8.232 0.753c-1.91 0.174-1.927 3.176 0 3z m14.284-1.595h5.707c1.935 0 1.935-3 0-3h-5.707c-1.935 0-1.935 3 0 3z m-19.26-17.476h4.637c1.935 0 1.935-3 0-3h-4.637c-1.934 0-1.934 3 0 3z m2.497 4.28h3.567c1.935 0 1.935-3 0-3h-3.567c-1.935 0-1.935 3 0 3z m-8.178-14.76c1.647-0.308 3.299-0.349 4.965-0.195 1.927 0.178 1.91-2.824 0-3-1.94-0.179-3.85-0.055-5.762 0.302-1.9 0.355-1.093 3.246 0.797 2.893zM147 482.822h4.28c1.935 0 1.935-3 0-3H147c-1.935 0-1.935 3 0 3z m16.406 16.049c1.935 0 1.935-3 0-3s-1.934 3 0 3z m-2.14-15.693c1.935 0 1.935-3 0-3-1.934 0-1.934 3 0 3z m13.553 60.633c1.935 0 1.935-3 0-3s-1.934 3 0 3z m-26.036 125.901c1.935 0 1.935-3 0-3s-1.935 3 0 3z m43.513 53.499c1.935 0 1.935-3 0-3s-1.935 3 0 3z m-7.847 22.113c1.935 0 1.935-3 0-3s-1.935 3 0 3z m-42.084-276.009l17.479-0.637c1.929-0.07 1.935-3.071 0-3l-17.479 0.637c-1.929 0.071-1.936 3.071 0 3z m26.391-0.403h2.853c1.935 0 1.935-3 0-3h-2.853c-1.935 0-1.935 3 0 3z m-28.533-8.203h11.77c1.935 0 1.935-3 0-3h-11.77c-1.934 0-1.934 3 0 3z m18.105-0.936l2.675 0.268c0.815 0.082 1.5-0.744 1.5-1.5 0-0.879-0.687-1.419-1.5-1.5l-2.675-0.268c-0.815-0.082-1.5 0.744-1.5 1.5 0 0.879 0.687 1.419 1.5 1.5z m-24.883-17.371l20.599-1.308c1.921-0.122 1.933-3.123 0-3l-20.599 1.308c-1.921 0.122-1.933 3.123 0 3z m4.283 7.809c3.741-0.284 7.482-0.377 11.233-0.281 1.936 0.05 1.931-2.951 0-3a111.086 111.086 0 0 0-11.233 0.281c-1.916 0.145-1.93 3.146 0 3z m18.723-2.699h5.35c1.935 0 1.935-3 0-3h-5.35c-1.934 0-1.934 3 0 3z m-28.888-27.531l16.05-1.06c1.92-0.127 1.932-3.128 0-3l-16.05 1.06c-1.92 0.127-1.932 3.128 0 3z m5.082 9.087l9.097-0.501c1.924-0.106 1.934-3.106 0-3l-9.097 0.501c-1.924 0.106-1.934 3.107 0 3z m-12.038-34.787h17.387c1.935 0 1.935-3 0-3h-17.387c-1.935 0-1.935 3 0 3z m5.069 14.347c3.75-0.46 7.482-0.493 11.239-0.099 1.923 0.202 1.904-2.8 0-3a49.465 49.465 0 0 0-11.239 0.099c-1.894 0.233-1.917 3.236 0 3z m16.717-1.084c1.113-0.226 2.228-0.249 3.357-0.137 0.815 0.081 1.5-0.743 1.5-1.5 0-0.879-0.687-1.419-1.5-1.5-1.398-0.138-2.779-0.035-4.154 0.244-0.802 0.163-1.253 1.098-1.048 1.845 0.227 0.829 1.044 1.211 1.845 1.048z m-24.347-19.85c1.289-0.183 2.601-0.18 3.896-0.076 1.93 0.156 1.915-2.845 0-3-1.581-0.128-3.126-0.039-4.694 0.183-0.811 0.115-1.243 1.134-1.048 1.845 0.238 0.863 1.037 1.162 1.846 1.048z m9.248-1.706h0.802c1.935 0 1.935-3 0-3h-0.802c-1.934 0-1.934 3 0 3z m-11.77-10.432h2.675c0.818 0 1.5-0.682 1.5-1.5s-0.682-1.5-1.5-1.5h-2.675c-0.818 0-1.5 0.682-1.5 1.5s0.683 1.5 1.5 1.5z m6.688-0.802h2.675c0.818 0 1.5-0.682 1.5-1.5s-0.682-1.5-1.5-1.5h-2.675c-0.818 0-1.5 0.682-1.5 1.5s0.682 1.5 1.5 1.5z m-9.512-8.153c1.289-0.217 2.592-0.23 3.892-0.115 1.928 0.17 1.911-2.831 0-3-1.579-0.139-3.128-0.04-4.69 0.223-0.807 0.136-1.248 1.118-1.048 1.845 0.234 0.847 1.04 1.183 1.846 1.047z m1.06-14.196l2.704-0.69c0.792-0.202 1.261-1.068 1.048-1.845-0.22-0.799-1.053-1.25-1.845-1.048l-2.704 0.69c-0.792 0.202-1.261 1.068-1.048 1.845 0.219 0.8 1.053 1.25 1.845 1.048z m0.293-10.593c-0.225 0.031 0.34-0.007 0.298-0.006 0.175-0.005 0.35 0.008 0.525 0.021-0.22-0.017 0.326 0.069 0.291 0.061 0.171 0.038 0.337 0.094 0.503 0.15 0.775 0.262 1.638-0.294 1.845-1.048 0.226-0.823-0.274-1.584-1.048-1.845-1.058-0.358-2.118-0.38-3.213-0.227-0.811 0.113-1.243 1.135-1.048 1.845 0.239 0.865 1.038 1.162 1.847 1.049z m6.286 9.134h1.337c1.935 0 1.935-3 0-3h-1.337c-1.934 0-1.934 3 0 3z m-4.691-26.019l1.34-0.529c0.76-0.3 1.282-0.992 1.048-1.845-0.199-0.724-1.084-1.349-1.845-1.048l-1.34 0.529c-0.76 0.3-1.282 0.992-1.048 1.845 0.199 0.725 1.084 1.349 1.845 1.048z m0.02-13.405l2.134 0.308c0.809 0.117 1.608-0.186 1.845-1.048 0.196-0.713-0.237-1.728-1.048-1.845l-2.134-0.308c-0.809-0.117-1.608 0.186-1.845 1.048-0.196 0.712 0.237 1.728 1.048 1.845z" fill="#280D0D" p-id="1287"></path><path d="M245.104 316.073c6.449 0 6.449-10 0-10s-6.449 10 0 10z" fill="#FFFFFF" p-id="1288"></path><path d="M248.243 333.332c8.094 22.449 17.114 44.59 25.936 66.761 2.354 5.917 12.029 3.339 9.643-2.658-8.822-22.171-17.842-44.312-25.936-66.761-2.171-6.019-11.836-3.423-9.643 2.658z" fill="#FFFFFF" p-id="1289"></path></svg>