<?xml version="1.0" standalone="no"?><!DOCTYPE svg PUBLIC "-//W3C//DTD SVG 1.1//EN" "http://www.w3.org/Graphics/SVG/1.1/DTD/svg11.dtd"><svg t="1571387917870" class="icon" viewBox="0 0 1024 1024" version="1.1" xmlns="http://www.w3.org/2000/svg" p-id="5340" width="21" height="21" xmlns:xlink="http://www.w3.org/1999/xlink"><defs><style type="text/css"></style></defs><path d="M512 512m-512 0a512 512 0 1 0 1024 0 512 512 0 1 0-1024 0Z" fill="#F9A336" p-id="5341"></path><path d="M668.541 345.714c0-91.579-80.921-163.99-170.377-163.99-89.45 0-168.243 72.409-168.243 163.989 0 83.053 168.243 283.258 168.243 283.258s170.377-195.943 170.377-283.257z m-232.135 8.522c0-36.21 29.81-66.022 63.885-63.897 34.089 0 63.899 27.687 63.899 63.897 0.001 34.075-27.692 63.885-63.899 63.885-34.075 0.001-63.885-27.679-63.885-63.885z" fill="#FFFFFF" p-id="5342"></path><path d="M536.465 758.76l-2.086-6.267c2.602-0.977 5.204-1.955 7.828-2.953 32.305-47.239 100.146-79.776 178.623-79.776 2.938 0 5.859 0.056 8.767 0.146l-1.421-4.732c21.301-6.396 44.73-8.516 66.029-10.655h-0.001v21.311c-3.507 0.388-7.015 0.777-10.536 1.191 11.855 2.823 23.21 6.428 33.954 10.722V501.188c0-23.429-19.165-42.599-44.715-42.599H664.294c-61.766 108.616-168.252 232.147-168.252 232.147S393.809 567.204 334.174 458.59h-87.318c-23.43 0-44.716 19.167-44.716 42.599v298.166c0 23.418 21.286 42.586 44.716 42.586h279.69c-2.91-9.681-4.456-19.723-4.456-30.023 0-18.797 5.111-36.736 14.375-53.158z m-249.142-33.947c-19.167-8.525-36.207-21.301-55.372-34.075l12.774-17.05c17.037 12.786 36.205 23.429 53.24 34.076l-10.642 17.049z m97.972 44.718c-19.167-8.516-38.334-14.907-59.635-23.434l8.514-19.169c19.166 8.526 38.337 17.054 57.503 21.313l-6.382 21.29z m72.411 12.784c-8.524 0-17.037-2.134-27.693-4.263l4.264-21.298c8.521 2.13 19.167 2.13 27.681 4.261 10.656 2.133 21.298 0 31.957 0l2.129 21.3a116.345 116.345 0 0 1-38.338 0z" fill="#FFFFFF" p-id="5343"></path><path d="M772.907 841.939c23.418 0 44.715-19.166 44.715-42.587V687.744c-10.744-4.294-22.099-7.897-33.954-10.722-15.719 1.853-31.699 4.229-49.099 9.45l-4.974-16.563a279.981 279.981 0 0 0-8.767-0.146c-78.477 0-146.318 32.537-178.623 79.776 14.561-5.541 29.818-11.773 49.661-22.609l8.525 19.169c-23.43 10.657-42.598 19.169-59.635 25.56l-4.295-12.898c-9.264 16.422-14.375 34.361-14.375 53.156 0 10.302 1.546 20.344 4.456 30.023h246.365z m-83.064-163.986l8.525 19.164c-19.169 8.525-36.207 17.051-59.637 27.694l-8.521-19.168c23.43-10.642 40.465-19.165 59.633-27.69z" fill="#FFFFFF" opacity=".4" p-id="5344"></path></svg>